<svg viewBox="0 0 24 24" fill="none" xmlns="http://www.w3.org/2000/svg" id="Channel--Streamline-Unicons">
  <path d="M20 16c-0.6207 0.0032 -1.2252 0.1989 -1.73 0.56l-2.45 -1.45c0.1156 -0.3588 0.1763 -0.733 0.18 -1.11 -0.0029 -0.8846 -0.2989 -1.7432 -0.8417 -2.4416 -0.5428 -0.6985 -1.3018 -1.1973 -2.1583 -1.4184V7.82c0.6672 -0.23589 1.2296 -0.70006 1.5876 -1.31048 0.3581 -0.61041 0.4889 -1.32775 0.3692 -2.02525 -0.1197 -0.69749 -0.4821 -1.33023 -1.0231 -1.78637 -0.5411 -0.45614 -1.226 -0.70632 -1.9337 -0.70632s-1.3926 0.25018 -1.9337 0.70632c-0.54103 0.45614 -0.90342 1.08888 -1.02309 1.78637 -0.11968 0.6975 0.01108 1.41484 0.36916 2.02525C9.77045 7.11994 10.3328 7.58411 11 7.82v2.32c-0.8565 0.2211 -1.61549 0.7199 -2.15831 1.4184C8.29887 12.2568 8.00287 13.1154 8 14c0.00372 0.377 0.0644 0.7512 0.18 1.11l-2.45 1.45c-0.50484 -0.3611 -1.10928 -0.5568 -1.73 -0.56 -0.59334 0 -1.17336 0.176 -1.66671 0.5056 -0.49335 0.3296 -0.87786 0.7982 -1.10493 1.3464 -0.22706 0.5481 -0.28647 1.1513 -0.17071 1.7333 0.11575 0.5819 0.40147 1.1165 0.82103 1.536 0.41956 0.4196 0.95411 0.7053 1.53605 0.8211 0.58194 0.1157 1.18514 0.0563 1.73332 -0.1708 0.54818 -0.227 1.01672 -0.6115 1.34636 -1.1049C6.82405 20.1734 7 19.5933 7 19c-0.0037 -0.2709 -0.04406 -0.54 -0.12 -0.8l2.3 -1.37c0.74945 0.745 1.7633 1.1632 2.82 1.1632 1.0567 0 2.0706 -0.4182 2.82 -1.1632l2.3 1.37c-0.1676 0.6056 -0.1407 1.2485 0.0767 1.8381 0.2174 0.5895 0.6145 1.0959 1.1351 1.4477 0.5207 0.3518 1.1387 0.5312 1.7668 0.5129 0.6281 -0.0182 1.2346 -0.2333 1.7339 -0.6147 0.4993 -0.3814 0.8663 -0.91 1.0491 -1.5112 0.1828 -0.6012 0.1722 -1.2446 -0.0302 -1.8394 -0.2025 -0.5949 -0.5866 -1.1111 -1.0982 -1.476 -0.5116 -0.3648 -1.1248 -0.5598 -1.7532 -0.5574ZM4 20c-0.19778 0 -0.39112 -0.0586 -0.55557 -0.1685 -0.16445 -0.1099 -0.29262 -0.2661 -0.36831 -0.4488 -0.07569 -0.1827 -0.09549 -0.3838 -0.0569 -0.5778 0.03858 -0.194 0.13382 -0.3722 0.27367 -0.512 0.13986 -0.1399 0.31804 -0.2351 0.51202 -0.2737 0.19398 -0.0386 0.39505 -0.0188 0.57777 0.0569 0.18273 0.0757 0.33891 0.2039 0.44879 0.3683C4.94135 18.6089 5 18.8022 5 19c0 0.2652 -0.10536 0.5196 -0.29289 0.7071C4.51957 19.8946 4.26522 20 4 20Zm8 -16c0.1978 0 0.3911 0.05865 0.5556 0.16853 0.1644 0.10989 0.2926 0.26606 0.3683 0.44879 0.0757 0.18273 0.0955 0.38379 0.0569 0.57777 -0.0386 0.19399 -0.1338 0.37217 -0.2737 0.51202 -0.1398 0.13985 -0.318 0.23509 -0.512 0.27368 -0.194 0.03858 -0.3951 0.01878 -0.5778 -0.05691 -0.1827 -0.07568 -0.3389 -0.20386 -0.4488 -0.36831C11.0587 5.39113 11 5.19779 11 5c0 -0.26521 0.1054 -0.51957 0.2929 -0.7071C11.4804 4.10536 11.7348 4 12 4Zm0 12c-0.3956 0 -0.7822 -0.1173 -1.1111 -0.3371 -0.3289 -0.2197 -0.5853 -0.5321 -0.7367 -0.8975 -0.1513 -0.3655 -0.19094 -0.7676 -0.1138 -1.1556 0.0772 -0.3879 0.2677 -0.7443 0.5474 -1.024 0.2797 -0.2797 0.6361 -0.4702 1.024 -0.5474 0.388 -0.0771 0.7901 -0.0375 1.1556 0.1138 0.3654 0.1514 0.6778 0.4078 0.8975 0.7367 0.2198 0.3289 0.3371 0.7155 0.3371 1.1111 0 0.5304 -0.2107 1.0391 -0.5858 1.4142S12.5304 16 12 16Zm8 4c-0.1978 0 -0.3911 -0.0586 -0.5556 -0.1685 -0.1644 -0.1099 -0.2926 -0.2661 -0.3683 -0.4488 -0.0757 -0.1827 -0.0955 -0.3838 -0.0569 -0.5778s0.1338 -0.3722 0.2737 -0.512c0.1398 -0.1399 0.318 -0.2351 0.512 -0.2737 0.194 -0.0386 0.3951 -0.0188 0.5778 0.0569 0.1827 0.0757 0.3389 0.2039 0.4488 0.3683 0.1099 0.1645 0.1685 0.3578 0.1685 0.5556 0 0.2652 -0.1054 0.5196 -0.2929 0.7071S20.2652 20 20 20Z" fill="#8de8f2" stroke-width="1"></path>
</svg>